<?xml version="1.0" ?><!DOCTYPE svg  PUBLIC '-//W3C//DTD SVG 1.1//EN'  'http://www.w3.org/Graphics/SVG/1.1/DTD/svg11.dtd'><svg enable-background="new 0 0 512 512" height="512px" id="Layer_1" version="1.1" viewBox="0 0 512 512" width="512px" xml:space="preserve" xmlns="http://www.w3.org/2000/svg" xmlns:xlink="http://www.w3.org/1999/xlink"><linearGradient gradientUnits="userSpaceOnUse" id="SVGID_1_" x1="0" x2="512" y1="256" y2="256"><stop offset="0" style="stop-color:#5500BD"/><stop offset="1" style="stop-color:#5200B2"/></linearGradient><g><path d="M347.719,106c-0.01,0.006-0.02,0.013-0.031,0.02l0.02-0.02c-14.258,3.235-27.117,3.341-39.883,0   c-11.25,20.957-52.746,88.77-79.157,132.191C201.882,193.829,170.17,142.611,149.513,106c-16.38,3.494-23.232,3.716-39.578,0   c32.44,48.883,84.426,141.994,102.111,172.56L209.67,406c0,0,11.408-1.912,19.033-1.912c8.451,0,18.963,1.912,18.963,1.912   l-2.375-127.44C278.289,220.664,332.76,126.209,347.719,106z" fill="#FFFFFF"/><path d="M385.479,108.535l-0.016,0.02l0.002-0.018c0,0-2.455-0.347-4.119-0.347c-9.504,0-18.92,5.573-18.92,19.821   c-5.635,71.469-11.504,143.147-21.152,211.351l-0.045,0.04c0.014-0.003,0.027-0.003,0.039-0.005c0,0.001,0,0.003,0,0.005   l0.043-0.01c5.836-1.006,10.361,0.518,14.756,2.288l-0.021-0.037c10.957-69.27,36.975-173.03,43.637-202.399   c0.957-4.128,2.383-9.01,2.383-12.48C402.064,116.284,395.424,110.198,385.479,108.535z" fill="#FFFFFF"/><path d="M340.049,368.076c-12.451,0-18.662,9.498-18.662,19.713c0,12.041,9.617,18.211,21.51,18.211   c8.6,0,17.984-5.228,17.984-19.41C360.881,375.205,351.965,368.076,340.049,368.076z" fill="#FFFFFF"/></g></svg>
