<svg xmlns="http://www.w3.org/2000/svg" viewBox="0 0 1173.32 346.48"><defs><style>.cls-1{fill:#1a3d6b;}.cls-2{fill:#5aa056;}.cls-3{fill:#59a056;}</style></defs><title>Asset 2</title><g id="Layer_2" data-name="Layer 2"><g id="Layer_1-2" data-name="Layer 1"><path class="cls-1" d="M169.71,171.11h50.43q31.6,0,43.19,13.17a45.2,45.2,0,0,1,11.59,30.82q0,11.2-4.22,18.9t-13.58,15.61q17.93,6.2,25.38,18.27a48.29,48.29,0,0,1,7.45,25.79q0,23.88-16.33,37.2t-46,13.32H169.71Zm37.31,29v38h8.53a22.37,22.37,0,0,0,15.88-6,19.57,19.57,0,0,0,6.43-14.88q0-7.14-6.3-12.1t-15.75-5Zm0,67.37v47.72h13.37q30.66,0,30.67-22.47,0-12.16-7.47-18.71t-21.36-6.54Z"/><path class="cls-1" d="M464.1,252.3v91.91H427.75L348.61,232.15V344.21H311.3V171.11h36.89l79.39,111.27V171.11h15.5C437.08,194.8,440.08,226.93,464.1,252.3Z"/><path class="cls-2" d="M755.57,110.43c-3.83,5.51-5.28,17.89-5.28,17.89C772,123.3,762.44,112,770.91,99,763,101.75,759.4,104.92,755.57,110.43Z"/><path class="cls-2" d="M751.57,110.83c-8.19,1.88-12.06,4.65-16.47,9.72s-7.19,17.22-7.19,17.22C750.05,135.12,741.77,122.86,751.57,110.83Z"/><path class="cls-2" d="M750.53,60.68s10.27-.85,14.93-4.82,7.41-8,8.62-15.9C765.29,49.7,755.52,44.25,750.53,60.68Z"/><path class="cls-2" d="M739.42,77.32s10.27.3,15.32-3.09,8.2-7.09,10.23-14.7C755.17,68.14,746.13,61.57,739.42,77.32Z"/><path class="cls-2" d="M771.51,116.51c21.09-7.36,10.34-17.58,17.4-31.45-7.63,3.64-10.84,7.18-14.06,13.08S771.51,116.51,771.51,116.51Z"/><path class="cls-2" d="M775.23,157.13c-6.72,1.3-9.95,3.41-13.68,7.34s-6.37,13.61-6.37,13.61C772.76,176.92,767.38,166.68,775.23,157.13Z"/><path class="cls-2" d="M804.35,141.84c-5.41,2.26-7.79,4.59-10.24,8.5s-3,12.25-3,12.25C804.92,158.79,799.93,151.09,804.35,141.84Z"/><path class="cls-2" d="M811.19,110.81c-5.45,2.4-8.49-.41-13.74-.7-10.06-.56-16.24,2.49-23.75,9.88,0,0,11.79,4.94,19.14,3.27S805.48,118.71,811.19,110.81Z"/><path class="cls-2" d="M791.4,148c-6.59,2.08-9.6,4.55-12.91,8.89s-4.91,14.25-4.91,14.25C791,168,784.55,158.43,791.4,148Z"/><path class="cls-2" d="M726.63,92.58S736.8,94,742.16,91.21,751,85.1,753.87,77.8C743.19,85.23,735,77.67,726.63,92.58Z"/><path class="cls-2" d="M820.14,51.38c-6.74,5.34-9.14,9.56-11.07,16.08s.62,18.76.62,18.76C828.83,74.34,816.11,66.59,820.14,51.38Z"/><path class="cls-2" d="M805.38,69.17c-7.23,4.5-10.05,8.39-12.64,14.62s-1.36,18.65-1.36,18.65C811.61,92.81,799.81,83.75,805.38,69.17Z"/><path class="cls-2" d="M846.4,52.42c8.63-5,8.74-11,9.15-19.71a80.53,80.53,0,0,1,1.4-10s-4.93,5.16-7.08,6.91c-6.68,5.42-11.36,7.62-12.15,17.22-.45,5.5.82,8.1.82,8.1S841.45,55.28,846.4,52.42Z"/><path class="cls-2" d="M770.74,137.34c7.47-.86,13-3.14,19.52-10.34-5.66,1.78-8.37-1.35-13.54-2.21-9.92-1.66-16.38.69-24.62,7.22C752.09,132,763.27,138.2,770.74,137.34Z"/><path class="cls-2" d="M740.82,169.61c-6.76-.21-10.34,1.15-14.79,4.19s-9.09,11.91-9.09,11.91C734.26,188.36,731.2,177.24,740.82,169.61Z"/><path class="cls-2" d="M832.45,38.43c-5.29,5-7,8.8-8.14,14.44s2,15.56,2,15.56C841,57.25,830.56,51.37,832.45,38.43Z"/><path class="cls-2" d="M740.92,94.65c-11.41,6.19-18.73-2.24-28.62,11.69,0,0,9.94,2.52,15.57.33S737.34,101.57,740.92,94.65Z"/><path class="cls-2" d="M707.77,175.52c-4.76,2.53-10.33,10.86-10.33,10.86,16.95,4.51,15.1-6.86,25.48-13.42C716.23,172,712.53,173,707.77,175.52Z"/><path class="cls-2" d="M696.57,118.46s9.62,3.58,15.45,2,10-4,14.25-10.53C714.25,114.85,707.91,105.68,696.57,118.46Z"/><path class="cls-2" d="M758.31,164.33c-6.77.54-10.19,2.28-14.3,5.78s-7.77,12.82-7.77,12.82C753.79,183.69,749.54,173,758.31,164.33Z"/><path class="cls-2" d="M767.77,140.78c-5.82,1.15-8.17-2.25-13.21-3.67-9.68-2.72-16.36-1.08-25.26,4.52,0,0,10.45,7.36,18,7.31S760.55,147.23,767.77,140.78Z"/><path class="cls-2" d="M759.46,42.92s8.38-1.64,11.9-5.29,5.45-7.19,5.91-13.77C770.17,32.09,761.81,29,759.46,42.92Z"/><path class="cls-2" d="M697.37,189.67s5.73,8.52,11.38,10.64,10.45,2.52,17.72-.24C713.85,197,714,185.89,697.37,189.67Z"/><path class="cls-2" d="M717.22,189s6.61,7.85,12.46,9.35,10.67,1.38,17.61-2.16C734.41,194.55,733.38,183.44,717.22,189Z"/><path class="cls-2" d="M792.52,165s7.77,3.56,12.75,2.65,8.62-2.66,12.83-7.75C807.53,162.41,802.56,155,792.52,165Z"/><path class="cls-2" d="M736.88,186.17s7.43,7.09,13.42,7.94,10.78.21,17.33-4.07C754.63,189.85,752.36,178.92,736.88,186.17Z"/><path class="cls-2" d="M756.18,181.23s8.17,6.24,14.25,6.42,10.79-1,16.89-6C774.32,183,770.81,172.34,756.18,181.23Z"/><path class="cls-2" d="M833.84,74.1c-10,1.74-15.46,6.15-21.25,15,0,0,12.63,2.22,19.5-1.07s11.46-7.32,15.41-16.42C842.69,75.26,839.07,73.2,833.84,74.1Z"/><path class="cls-2" d="M829,70.58s10.61.68,16-2.59,8.85-6.93,11.47-14.71C845.71,61.68,836.7,54.39,829,70.58Z"/><path class="cls-2" d="M805.89,149.64c-1.92,4-1.71,6.31-1.71,6.31s2.08,1.12,6.61.39c7.91-1.27,9.71-5.71,12.52-12.16a64.68,64.68,0,0,1,3.92-7.12s-5.18,2.45-7.3,3.15C813.38,142.35,809.23,142.66,805.89,149.64Z"/><path class="cls-2" d="M816.56,93.18c-10.09.57-15.94,4.31-22.63,12.48,0,0,12.28,3.62,19.43,1.13s12.12-5.94,17-14.47C825.18,95.34,821.83,92.88,816.56,93.18Z"/><path class="cls-2" d="M774.9,174.18s8.84,5.29,14.94,4.79,10.7-2.2,16.27-7.9C793.3,173.87,788.54,163.74,774.9,174.18Z"/><path class="cls-2" d="M757,41.79c9-11.1.43-14.47-1.37-24.55-3.08,5-3.65,8.27-3.37,12.88S757,41.79,757,41.79Z"/><path class="cls-2" d="M748.68,29.81c-4.14,5.53-5.15,9.29-5.31,14.75S747.69,59,747.69,59C760,46.3,749.18,42.25,748.68,29.81Z"/><path class="cls-2" d="M740.85,46.63c-4.7,5-6.1,8.57-6.83,13.94s2.75,14.77,2.75,14.77C750.39,64.15,740,59,740.85,46.63Z"/><g id="_Group_" data-name="&lt;Group&gt;"><path class="cls-2" d="M710.12,161.79l-3.73,1.1c-1.21.37-2.72.77-4.5,1.25s-3.83,1-6.13,1.54c-4.62,1.06-10.26,2.27-16.82,3.23-3.27.47-6.77.93-10.48,1.29s-7.61.6-11.7.75-8.35.19-12.77,0-9-.47-13.65-.94q-3.79-.39-7.67-.94l-.52,1c-1-.5-2-1-3-1.53l-3.13-.51c-4.86-.84-9.79-1.9-14.76-3.08s-10-2.54-15-4c-2.52-.72-5-1.45-7.57-2.23s-5.09-1.62-7.6-2.42a298.2,298.2,0,0,0-30.7-8.29,139.47,139.47,0,0,0-31.16-3.34c-10.23.14-20.3,1.92-28.68,6.38a42.58,42.58,0,0,0-11,8.35,47.4,47.4,0,0,0-4.22,5.3c-4.11,6.33-7,13.62-6.91,21.25a21.46,21.46,0,0,0,1.28,7.75c1.15,2.91,4.15,3.65,4.49,6.84.1,1-.09,3.71-.1,4.68,0,3.42,0,6.89.07,10.31.14,7.79,0,15.59,0,23.39,0,1.58,0,5.28,0,5.28s-2-3-2.72-4.23c-1.08-1.75-2.13-3.53-3.12-5.34A89.58,89.58,0,0,1,453,223.5c-4.89-12.9-7.13-27.41-3.68-40.92C451.79,173,457,163,464.15,156.07a64.1,64.1,0,0,1,36.37-17.47,84.82,84.82,0,0,1,11.67-.73,144.45,144.45,0,0,1,21.17,1.69q4.22.66,8.42,1.51a280.09,280.09,0,0,1,31.4,8.67c9.7,3.19,19.27,6.27,28.62,8.79l-.72-.45.87.5.85.23c4.84,1.29,9.62,2.4,14.33,3.38s9.33,1.83,13.86,2.47,9,1.12,13.26,1.46,8.47.54,12.47.65,7.85,0,11.51-.09,7.13-.31,10.39-.54c6.52-.53,12.19-1.22,16.86-1.89,2.33-.34,4.41-.66,6.21-1s3.35-.55,4.59-.8Z"/><path class="cls-2" d="M622.67,169.11a201.63,201.63,0,0,0,55.84,15.57c2.51-2.76,7.29-8,10.9-9.43,5-2,8.81-2.57,15.36-.91-6.49,2.1-5.92,11.4-15.21,13.41,8.83,3.19,8.23,12.16,15.81,13.93-7.52,2-12.25,1.05-17.66-1.67-3.92-2-8.08-8.2-9.92-11.47a205,205,0,0,1-55.64-18.42Z"/></g><path class="cls-2" d="M763.69,28.79s2.34-.3,5.6-3.54C775,19.6,773.84,15,772.37,8.07a65.34,65.34,0,0,1-1-8.07s-2.78,5-4.09,6.81C763.24,12.39,760,15,761.4,22.67,762.17,27,763.69,28.79,763.69,28.79Z"/><path class="cls-2" d="M471.27,137.77a63.85,63.85,0,0,1,19.49-7.3,114.29,114.29,0,0,1,23.47-2.21h2.28l.8,0,1.6,0,1.53.08c2,.09,4.13.27,6.21.48A127,127,0,0,1,539.25,131a249.59,249.59,0,0,1,25.42,7.16c8.49,2.8,17,5.71,25.55,8.32a254.84,254.84,0,0,0,25.48,6.48,187.13,187.13,0,0,0,24.45,3.1,172.38,172.38,0,0,0,22-.12,182.19,182.19,0,0,0,18.43-2.23c4.34-.72,8.19-1.57,11.52-2.35q6.91-1,13.9-2.29c3.6,3,11.19,8.37,16.63,8.92,7.5.76,13.41-.28,21.29-5.91-9.64.35-14.77-9-24.59-9.17,8.27-5.91,5.25-15.61,11.72-22.36-8.35,1-12.51,3.33-17.45,7.89-3.56,3.29-6.8,11.49-8.49,15.82a247,247,0,0,1-58.47,7.19c-2-.15-4-.33-6.1-.54a190.24,190.24,0,0,1-22-3.65A204.94,204.94,0,0,0,680,129c3.4,1.59,10.4,4.22,14.74,3.54,6-.94,10.36-3,15.32-8.94-7.2,3-11.92-4.65-21-2.1,6.38-7,.49-14.27,4.53-19.76-6.28,2.47-9,5.14-11.94,9.69-2.1,3.28-2.93,10.32-3.36,14a201.25,201.25,0,0,1-61.93,21.33c-7.91-1.84-16-4.18-24.12-6.83-8.35-2.7-16.78-5.75-25.37-8.6a228.27,228.27,0,0,0-26.21-7.36,124.73,124.73,0,0,0-13.36-2.05c-2.24-.2-4.43-.44-6.68-.51l-1.68-.17H516.6l-.86.16-1.62.17c-4.31.13-8.55.43-12.68,1a91.76,91.76,0,0,0-12,2.3,64.81,64.81,0,0,0-20.61,9.14,48.36,48.36,0,0,0-13.3,13.59,51.72,51.72,0,0,0-6.1,13.13,62.88,62.88,0,0,0-2.09,9c-.18,1-.26,1.85-.33,2.39l-.1.82.9-3.11a77.15,77.15,0,0,1,3.14-8.51,57.63,57.63,0,0,1,2.91-5.71,49.69,49.69,0,0,1,4.18-6.19A47.74,47.74,0,0,1,471.27,137.77Z"/><path class="cls-2" d="M707.57,90c-6,3.13-8.42,6.08-10.81,10.91s-2.06,14.84-2.06,14.84C711.1,109.52,703,101.37,707.57,90Z"/><path class="cls-2" d="M731.3,62.35c-5.19,4.38-7,7.79-8.25,13s1.17,14.95,1.17,14.95C738.93,80.71,729.2,74.47,731.3,62.35Z"/><path class="cls-2" d="M720.17,76.83c-5.61,3.77-7.73,7-9.58,12s-.45,15-.45,15C725.78,95.89,716.79,88.64,720.17,76.83Z"/><path class="cls-1" d="M52.82,296.71Q66.48,312,87.32,312q21.9,0,35.37-15.06c.28-.32.54-.64.81-1L149.57,322q-24.86,24.43-62.25,24.46-38.09,0-62.71-25.22T0,257.16q0-38.62,25.54-63.77t60.59-25.15q38.18,0,63.34,24.56l-26,26-.53-.64Q109.75,203.41,87.85,203t-35.3,15.13q-13.41,15.53-13.4,40.08Q39.15,281.46,52.82,296.71Z"/><path class="cls-3" d="M538.85,193.44h19.76l48.21,118.33H581.15l-9.47-23.25H526.26L517,311.77H491.46Zm9.88,38.75-13.91,34.88h28.12Z"/><path class="cls-3" d="M675.31,307.36v-9.1q-10.37,13.16-24,13.16A31,31,0,0,1,627,300.15q-9.78-11.26-9.78-28.21,0-16.4,10.14-27.89t24.38-11.49q12.08,0,23.61,12.62V234.45H698.2v78.41q0,6.49-4.1,14.92t-14,12.44a60.36,60.36,0,0,1-22.85,4q-16.13,0-25.82-6t-13.92-20.73H643.4Q651,328,659.8,328A13.4,13.4,0,0,0,671,322.27Q675.3,316.55,675.31,307.36Zm-33.53-34.79q0,5.95,5.18,11.58a16,16,0,0,0,12.12,5.63,15,15,0,0,0,11.58-5.36,18.9,18.9,0,0,0,4.82-13.11q0-7.93-4.6-13.07a15.12,15.12,0,0,0-11.81-5.14,16.16,16.16,0,0,0-12.3,5.36Q641.78,263.83,641.78,272.57Z"/><path class="cls-3" d="M743.26,234.27v11.45h.36a30.72,30.72,0,0,1,8-9.15q4.55-3.38,8.43-3.38a22.85,22.85,0,0,1,4.24.36v25.23a30.75,30.75,0,0,0-5.68-.54q-7.12,0-11,5t-3.92,14v34.52H720.19V234.27Z"/><path class="cls-3" d="M777,273.2q0-17.93,11.45-29.29t29.38-11.35q16.67,0,28,11.58t11.31,28.7q0,17.49-11.31,29t-28.34,11.54q-19.2,0-29.83-12.21A41.37,41.37,0,0,1,777,273.2Zm57.41,0a20.12,20.12,0,0,0-5.14-13.7q-5.14-5.86-12-5.86a16.21,16.21,0,0,0-12.26,5.5,18.61,18.61,0,0,0-5.14,13.16,21,21,0,0,0,5.09,14.24,15.74,15.74,0,0,0,12.3,5.86q6.85,0,12-5.72A19.51,19.51,0,0,0,834.37,273.2Z"/><path class="cls-1" d="M887,207.68h23.07v26.59h11.08v21.18H910.07v56.33H887V255.44h-8.83V234.27H887Z"/><path class="cls-1" d="M1007.13,278.52H951.89a18.63,18.63,0,0,0,4.91,12.17,13.94,13.94,0,0,0,10.41,4.69q10.63,0,16.67-9.64l21.18,7q-11.81,20.64-36.68,20.64-18.3,0-29.11-11.08t-10.81-29.83q0-16.85,11.4-28.3t28.07-11.45a36.69,36.69,0,0,1,28,12q11.22,12,11.22,30.06ZM952.07,263h31.18q-3.24-14.51-14.87-14.51a16.26,16.26,0,0,0-11,3.78Q953,256.08,952.07,263Z"/><path class="cls-1" d="M1099.69,191.46h23.43v51.82a50.3,50.3,0,0,1,11.72-7.84,30.26,30.26,0,0,1,12.53-2.43q12.17,0,19.06,8.79t6.89,24.38v45.6h-23.25V270.23a20.32,20.32,0,0,0-3.83-12.57q-3.83-5.09-9.42-5.09-7.12,0-10.41,5.86t-3.29,18.3v35.06h-23.43Z"/><path class="cls-1" d="M1060.84,291.51q6.87,0,12-5.74c.24-.26.45-.54.68-.82l16,16-.07.07q-11.34,11.56-28.42,11.57-19.25,0-29.91-12.25a41.48,41.48,0,0,1-10.66-28.06q0-18,11.47-29.37t29.46-11.38q16.73,0,28.06,11.61l.05,0-16.06,16.06c-.19-.24-.37-.47-.57-.7q-5.14-5.88-12-5.88a16.28,16.28,0,0,0-12.29,5.51,18.69,18.69,0,0,0-5.15,13.2,21,21,0,0,0,5.11,14.28A15.78,15.78,0,0,0,1060.84,291.51Z"/><circle class="cls-1" cx="865.38" cy="311.77" r="11.26"/></g></g></svg>