<svg width="200" height="200" xmlns="http://www.w3.org/2000/svg" xmlns:svg="http://www.w3.org/2000/svg">
 <metadata id="metadata2296">image/svg+xml</metadata>
  <g stroke="null" id="svg_1">
   <path stroke="null" fill="#7b0099" d="m160.50717,50.55396c-2.84032,0.44749 -14.66438,4.67154 -18.63857,6.02984c-4.25552,1.80577 -43.13496,49.70324 -45.68898,61.46459c-0.56622,4.07037 -0.85004,10.33298 -0.85004,16.21821l-0.28488,9.5058c0,6.78244 1.18169,17.72113 1.74755,23.60181c2.55615,0.90854 21.05548,0.11528 24.45989,1.01703l-0.41883,12.16589c-3.32645,-0.38644 -26.81761,-0.29608 -40.23829,-0.29608c-6.81274,0 -28.71294,1.19788 -35.4417,0.87466l1.27205,-11.56924c3.68966,-0.45651 18.96633,1.05093 22.32468,-4.60147c1.6682,-2.80475 1.1367,-5.81061 1.1367,-22.09888l0,-7.69098c0,-3.62061 0,-10.4121 -0.56941,-16.74931c-1.41803,-6.78922 -35.66245,-74.97073 -44.45946,-85.82804c-2.55615,-1.35604 -18.56275,-3.90878 -22.53515,-5.26933l-0.19772,-10.42229c1.98178,-1.5843 19.78093,0.38536 37.05391,-0.63393c11.35208,-0.66899 37.25375,0 40.44947,0.60682l-0.81886,9.18489c-3.40443,1.35942 -19.80539,1.86229 -24.06305,3.67034c11.06862,26.24608 28.56873,60.03622 34.24549,73.16041c3.12344,-7.23899 30.55794,-37.3362 31.40833,-47.74377c-4.25835,-1.36281 -18.35332,-4.59697 -20.6246,-4.59697l-1.34823,-11.84949c3.86398,-0.96392 24.18137,0 34.28233,0c8.71729,0 27.34451,0 32.63753,0.69158l-4.84018,11.15792" id="path2217"/>
   <path stroke="null" fill="#7b0099" d="m172.06615,183.84303l-6.5849,-0.90065l-0.07016,-22.74298l8.33673,1.65663l7.47144,0.55258l-2.07355,22.26952l-7.07956,-0.8351m8.48201,-40.17369l-12.28822,-1.90186c1.28906,-9.90811 0.16724,-85.97155 0.06731,-94.08631l-0.63284,-15.97862c3.42357,1.07579 2.90482,0.51078 17.35022,2.93356c8.79027,1.4713 9.93761,2.0996 12.83037,2.28153l-3.77576,18.94834c-3.22159,15.15483 -12.55966,82.74079 -13.55107,87.80335l0,-0.00003l0,0.00003z" id="path2225"/>
  </g>
</svg>